{"title":"Loft-AC3-5,1-DVDRip[Bel]2008","uid":5065130,"size":1384428437,"categoryP":"video","categoryS":"movies","magnet":"?xt=urn:btih:2a64624aed8b15536ac1220bc5b2467b578ac5d7&amp;dn=Loft-AC3-5%2C1-DVDRip%5BBel%5D2008&amp;tr=udp%3A%2F%2Ftracker.openbittorrent.com%3A80&amp;tr=udp%3A%2F%2Fopen.demonii.com%3A1337&amp;tr=udp%3A%2F%2Ftracker.coppersurfer.tk%3A6969&amp;tr=udp%3A%2F%2Fexodus.desync.com%3A6969","seeders":0,"leechers":1,"uploader":"FatFreddy31","files":-1,"time":1250980801,"description":" &lt;a href=&quot;http://www.imdb.com/title/tt0926762/&quot; rel=&quot;nofollow&quot; target=&quot;_NEW&quot;&gt;http://www.imdb.com/title/tt0926762/&lt;/a&gt;\n &lt;a href=&quot;\nhttp://www.moviemeter.nl/film/50032&quot; rel=&quot;nofollow&quot; target=&quot;_NEW&quot;&gt;\nhttp://www.moviemeter.nl/film/50032&lt;/a&gt;\n\nBelgiÃƒÂ«\nThriller / Mystery\n118 minuten\n\nGeregisseerd door Erik Van Looy\nMet Koen De Bouw, Matthias Schoenaerts en Filip Peeters\n\nVijf getrouwde mannen delen stiekem een loft, waar ze stijlvol en in alle rust hun minnaressen en liefjes ontvangen. Een prima regeling, tot ze op een winterochtend het lijk aantreffen van een jonge vrouw. Geen van hen weet wie de vrouw is, waar ze vandaan komt en hoe ze terecht is gekomen in de loft waarvan alleen zij de sleutel bezitten. Noodgedwongen proberen de vrienden zelf uit te zoeken wat er gebeurd is en waarom, maar al vlug beginnen ze elkaar te wantrouwen en zal blijken dat ze veel minder van elkaar afweten dan ze dachten...\n\nInfo:\n\nGeneral\nComplete name                    : Loft-AC3-5,1-DVDRip[Bel]2008.avi\nFormat                           : AVI\nFormat/Info                      : Audio Video Interleave\nFile size                        : 1.29 GiB\nDuration                         : 1h 52mn\nOverall bit rate                 : 1 635 Kbps\nWriting application              : VirtualDubMod 1.5.4.1 (build 2178/release)\nWriting library                  : VirtualDubMod build 2178/release\n\nVideo\nFormat                           : MPEG-4 Visual\nFormat profile                   : Simple@L3\nFormat settings, BVOP            : No\nFormat settings, QPel            : No\nFormat settings, GMC             : No warppoints\nFormat settings, Matrix          : Default\nCodec ID                         : XVID\nCodec ID/Hint                    : XviD\nDuration                         : 1h 52mn\nBit rate                         : 1 179 Kbps\nWidth                            : 720 pixels\nHeight                           : 304 pixels\nDisplay aspect ratio             : 2.35\nFrame rate                       : 25.000 fps\nResolution                       : 24 bits\nColorimetry                      : 4:2:0\nScan type                        : Progressive\nBits/(Pixel*Frame)               : 0.216\nStream size                      : 953 MiB (72%)\nWriting library                  : XviD 50\n\nAudio\nFormat                           : AC-3\nFormat/Info                      : Audio Coding 3\nCodec ID                         : 2000\nDuration                         : 1h 52mn\nBit rate mode                    : Constant\nBit rate                         : 448 Kbps\nChannel(s)                       : 6 channels\nChannel positions                : Front: L C R, Surround: L R, LFE\nSampling rate                    : 48.0 KHz\nStream size                      : 362 MiB (27%)\nAlignment                        : Split accross interleaves\nInterleave, duration             : 80 ms (2.00 video frames)\nInterleave, preload duration     : 500 ms\nLanguage                         : Nederlands (Vlaams)\n\nVeel plezier met deze film.","torrent":{"xt":"urn:btih:2a64624aed8b15536ac1220bc5b2467b578ac5d7","amp;dn":"Loft-AC3-5%2C1-DVDRip%5BBel%5D2008","amp;tr":["udp%3A%2F%2Ftracker.openbittorrent.com%3A80","udp%3A%2F%2Fopen.demonii.com%3A1337","udp%3A%2F%2Ftracker.coppersurfer.tk%3A6969","udp%3A%2F%2Fexodus.desync.com%3A6969"],"infoHash":"2a64624aed8b15536ac1220bc5b2467b578ac5d7","infoHashBuffer":{"type":"Buffer","data":[42,100,98,74,237,139,21,83,106,193,34,11,197,178,70,123,87,138,197,215]},"announce":[],"urlList":[]}}